<svg width="215" height="215" viewBox="0 0 215 215" fill="none" xmlns="http://www.w3.org/2000/svg">
<path d="M120.296 12.8764L121.017 13.4905L121.881 13.1043L137.231 6.24553L146.436 20.3144L146.955 21.1066L147.893 20.9795L164.553 18.7232L169.422 34.8156L169.696 35.7218L170.632 35.8642L187.254 38.3931L187.391 55.2053L187.399 56.152L188.257 56.5523L203.493 63.6616L198.888 79.8316L198.629 80.7421L199.339 81.3679L211.955 92.4816L202.982 106.699L202.476 107.5L202.982 108.301L211.955 122.518L199.339 133.632L198.629 134.258L198.888 135.168L203.493 151.338L188.257 158.448L187.399 158.848L187.391 159.795L187.254 176.607L170.632 179.136L169.696 179.278L169.422 180.184L164.553 196.277L147.893 194.02L146.955 193.893L146.436 194.686L137.231 208.754L121.881 201.896L121.017 201.51L120.296 202.124L107.5 213.029L94.704 202.124L93.9835 201.51L93.1191 201.896L77.769 208.754L68.5638 194.686L68.0454 193.893L67.1073 194.02L50.4466 196.277L45.578 180.184L45.3038 179.278L44.3679 179.136L27.7464 176.607L27.6087 159.795L27.6009 158.848L26.743 158.448L11.5073 151.338L16.1117 135.168L16.371 134.258L15.6606 133.632L3.04499 122.518L12.0185 108.301L12.5238 107.5L12.0185 106.699L3.04499 92.4816L15.6606 81.3679L16.371 80.7421L16.1117 79.8316L11.5073 63.6616L26.743 56.5523L27.6009 56.152L27.6087 55.2053L27.7464 38.3931L44.3679 35.8642L45.3038 35.7218L45.578 34.8156L50.4466 18.7232L67.1073 20.9795L68.0454 21.1066L68.5638 20.3144L77.769 6.24553L93.1191 13.1043L93.9835 13.4905L94.704 12.8764L107.5 1.97086L120.296 12.8764Z" fill="url(#paint0_linear_207_32)" stroke="black" stroke-width="3"/>
<path d="M193.018 113.294L161.844 131.388L143.893 100.131" stroke="#EFEEEA" stroke-width="12"/>
<path fill-rule="evenodd" clip-rule="evenodd" d="M57.6217 70.9913C59.6244 68.1987 61.8805 65.5319 64.3899 63.0224C89.2428 38.1695 129.537 38.1695 154.39 63.0224C173.386 82.0184 177.863 110.036 167.82 133.283L157.297 127.335C164.795 108.711 160.997 86.6003 145.905 71.5077C125.738 51.3411 93.0418 51.3411 72.8752 71.5077C71.1509 73.232 69.5741 75.0478 68.1447 76.9396L57.6217 70.9913Z" fill="#EFEEEA"/>
<path d="M24.5776 103.566L55.7521 85.473L73.7033 116.729" stroke="#EFEEEA" stroke-width="12"/>
<path fill-rule="evenodd" clip-rule="evenodd" d="M49.9419 82.0619C48.5248 85.1925 47.3433 88.4798 46.4247 91.9078C37.328 125.857 57.4752 160.753 91.4249 169.85C117.374 176.803 143.876 166.672 158.988 146.35L148.575 140.211C136.195 156.017 115.148 163.783 94.5307 158.259C66.9826 150.878 50.6344 122.562 58.0159 95.0136C58.647 92.6582 59.4312 90.3847 60.3548 88.2009L49.9419 82.0619Z" fill="#EFEEEA"/>
<defs>
<linearGradient id="paint0_linear_207_32" x1="65" y1="-8" x2="190" y2="239" gradientUnits="userSpaceOnUse">
<stop stop-color="#0E15A5" stop-opacity="0.79"/>
<stop offset="1" stop-color="#1821F5"/>
</linearGradient>
</defs>
</svg>
