<svg width="146" height="60" viewBox="0 0 146 60" fill="none" xmlns="http://www.w3.org/2000/svg">
<path d="M48.3005 1C73.8036 1 99.8373 11.4634 123.959 19.5041C131.534 22.0289 136.91 23.4701 144.5 26" stroke="#1B202C" stroke-width="2" stroke-linecap="round"/>
<path d="M1.5 59C19.9486 59 38.5366 57.5207 56.1292 51.3115C64.8431 48.236 73.9913 46.3064 82.7905 43.3734C89.1766 41.2447 96.3776 38.6111 102.992 37.4608C112.194 35.8604 120.507 32.5096 129.324 29.7964C132.185 28.9161 140.142 27.8499 144.5 26" stroke="#1B202C" stroke-width="2" stroke-linecap="round"/>
<path d="M48 1C48 5.22462 47.0427 19.4787 43 21.5" stroke="#1B202C" stroke-width="2" stroke-linecap="round"/>
<path d="M1.5 59C8.63227 57.5735 14.1313 46.8814 20.2706 43.3733C22.2885 42.2202 27.3083 40.5434 28.5919 38.9389C30.267 36.845 33.2154 34.6563 35.4899 33.519" stroke="#1B202C" stroke-width="2" stroke-linecap="round"/>
<path d="M35.49 33.5191C41.6221 33.5191 50.5268 35.1081 56.4029 33.3001C60.1499 32.1472 64.0942 32.5336 68.0091 32.5336C72.7918 32.5336 77.0236 30.6994 81.805 30.5628C91.0453 30.2988 100.267 28.8605 109.397 28.5919C114.086 28.454 138 27.5 144.5 26" stroke="#1B202C" stroke-width="2" stroke-linecap="round"/>
<path d="M43.3734 21.694C56.5856 21.694 68.9081 23.6648 82.024 23.6648C95.9967 23.6648 130.658 26 144.5 26" stroke="#1B202C" stroke-width="2" stroke-linecap="round"/>
<path d="M43 22C43.1666 25.3988 44.1351 30.6924 45 34" stroke="#1B202C" stroke-width="2" stroke-linecap="round"/>
<path d="M51.5 53C54.4189 53 59.4817 57.7052 61.549 57.1145C65.23 56.0628 70.2083 55.01 73.9216 53.4466C81.2997 50.34 90 47.4439 97.0791 44.8515C103.5 42.5 111 40.2515 117.773 37.406C123.5 35 137.188 28.2705 144 26" stroke="#1B202C" stroke-width="2" stroke-linecap="round"/>
</svg>
