<svg width="215" height="215" viewBox="0 0 215 215" fill="none" xmlns="http://www.w3.org/2000/svg">
<path d="M120.296 12.8764L121.017 13.4905L121.881 13.1043L137.231 6.24553L146.436 20.3144L146.955 21.1066L147.893 20.9795L164.553 18.7232L169.422 34.8156L169.696 35.7218L170.632 35.8642L187.254 38.3931L187.391 55.2053L187.399 56.152L188.257 56.5523L203.493 63.6616L198.888 79.8316L198.629 80.7421L199.339 81.3679L211.955 92.4816L202.982 106.699L202.476 107.5L202.982 108.301L211.955 122.518L199.339 133.632L198.629 134.258L198.888 135.168L203.493 151.338L188.257 158.448L187.399 158.848L187.391 159.795L187.254 176.607L170.632 179.136L169.696 179.278L169.422 180.184L164.553 196.277L147.893 194.02L146.955 193.893L146.436 194.686L137.231 208.754L121.881 201.896L121.017 201.51L120.296 202.124L107.5 213.029L94.704 202.124L93.9835 201.51L93.1191 201.896L77.769 208.754L68.5638 194.686L68.0454 193.893L67.1073 194.02L50.4466 196.277L45.578 180.184L45.3038 179.278L44.3679 179.136L27.7464 176.607L27.6087 159.795L27.6009 158.848L26.743 158.448L11.5073 151.338L16.1117 135.168L16.371 134.258L15.6606 133.632L3.04499 122.518L12.0185 108.301L12.5238 107.5L12.0185 106.699L3.04499 92.4816L15.6606 81.3679L16.371 80.7421L16.1117 79.8316L11.5073 63.6616L26.743 56.5523L27.6009 56.152L27.6087 55.2053L27.7464 38.3931L44.3679 35.8642L45.3038 35.7218L45.578 34.8156L50.4466 18.7232L67.1073 20.9795L68.0454 21.1066L68.5638 20.3144L77.769 6.24553L93.1191 13.1043L93.9835 13.4905L94.704 12.8764L107.5 1.97086L120.296 12.8764Z" stroke="#1B202C" stroke-width="3"/>
<path d="M181.317 111.349L153.733 127.358L137.85 99.7024" stroke="#1B202C" stroke-width="4"/>
<path fill-rule="evenodd" clip-rule="evenodd" d="M68.1689 76.5488C69.6896 74.4775 71.3864 72.4951 73.2594 70.6221C93.1761 50.7054 125.468 50.7054 145.384 70.6221C160.465 85.7032 164.127 107.88 156.369 126.406L152.859 124.422C159.77 107.438 156.336 87.2304 142.556 73.4506C124.201 55.0959 94.4425 55.0959 76.0878 73.4506C74.4766 75.0618 73.0067 76.761 71.6784 78.5326L68.1689 76.5488Z" fill="#1B202C"/>
<path d="M35.2793 102.742L62.8626 86.7326L78.746 114.388" stroke="#1B202C" stroke-width="4"/>
<path fill-rule="evenodd" clip-rule="evenodd" d="M61.3251 86.4283C60.2917 88.7809 59.4233 91.2416 58.7377 93.8002C51.4477 121.007 67.5934 148.972 94.8002 156.262C115.401 161.782 136.437 153.865 148.603 137.883L145.13 135.836C133.877 150.313 114.659 157.442 95.8355 152.398C70.7626 145.68 55.8832 119.908 62.6014 94.8354C63.1912 92.6344 63.9278 90.5119 64.7979 88.4757L61.3251 86.4283Z" fill="#1B202C"/>
</svg>
