<svg width="273" height="241" viewBox="0 0 273 241" fill="none" xmlns="http://www.w3.org/2000/svg">
<path d="M113.548 1C113.548 18.0725 113.548 35.1449 113.548 52.2174C113.548 61.9795 116.649 67.5451 122.573 75.1619C130.501 85.354 138.693 93.5777 149.976 99.8462C158.8 104.748 168.673 108.323 177.923 112.352C187.15 116.37 195.105 122.546 204.673 125.836C210.048 127.683 215.356 129.428 220.767 131.164C222.283 131.65 224.113 133.121 225.606 133.121C231.676 133.121 237.987 134.1 244.255 134.1C253.175 134.1 262.004 135.079 271.114 135.079" stroke="#1B202C" strokeWidth="2" strokeLinecap="round"/>
<path d="M1 44.0617C18.1595 44.0617 35.6422 45.2955 52.6523 42.8655C62.0455 41.5236 76.2341 40.2709 83.2087 33.2963" stroke="#1B202C" strokeWidth="2" strokeLinecap="round"/>
<path d="M26.4456 108.654C35.1221 108.654 41.3508 108.824 49.1726 104.522C59.0551 99.0867 69.0056 94.1301 78.8047 88.5914C83.5332 85.9188 90.271 80.2727 95.9315 80.2727" stroke="#1B202C" strokeWidth="2" strokeLinecap="round"/>
<path d="M64.6139 183.034C73.9306 173.717 85.7358 166.776 95.8228 158.241C103.15 152.041 109.977 145.192 118.387 140.461C120.449 139.301 123.336 136.787 124.313 134.589C127.487 127.447 133.914 121.31 138.993 115.505" stroke="#1B202C" strokeWidth="2" strokeLinecap="round"/>
<path d="M172.268 130.185C175.799 132.392 173.247 150.335 173.247 154.054C173.247 159.002 173.247 163.949 173.247 168.897C173.247 174.273 173.047 178.838 171.29 184.012C168.66 191.754 165.739 198.868 161.557 205.924C160.498 207.711 156.752 217.857 155.631 213.373" stroke="#1B202C" strokeWidth="2" strokeLinecap="round"/>
<path d="M229.031 151.716C229.031 170.877 229.743 190.205 228.977 209.349C228.615 218.397 225.788 226.559 224.192 235.338C223.597 238.611 222.957 241.249 221.202 236.861" stroke="#1B202C" strokeWidth="2" strokeLinecap="round"/>
</svg>
